<svg version="1.1" id="Layer_1" xmlns="http://www.w3.org/2000/svg" xmlns:xlink="http://www.w3.org/1999/xlink" x="0px" y="0px"
	 width="100%" viewBox="0 0 1568 1653" enable-background="new 0 0 1568 1653" xml:space="preserve">
<path fill="#FFFFFF" opacity="1.000000" stroke="none" 
	d="
M716.000000,1654.000000 
	C477.681732,1654.000000 239.363480,1654.000000 1.022609,1654.000000 
	C1.022609,1103.049927 1.022609,552.099854 1.022609,1.074877 
	C523.583679,1.074877 1046.167358,1.074877 1568.875488,1.074877 
	C1568.875488,551.882202 1568.875488,1102.764404 1568.875488,1654.000000 
	C1318.634033,1654.000000 1068.267944,1654.000000 817.400024,1653.626343 
	C813.227173,1652.170410 809.565491,1650.188843 805.883423,1650.150269 
	C779.922668,1649.878540 753.955383,1649.836426 727.996399,1650.185181 
	C723.981262,1650.239136 719.998047,1652.668945 716.000000,1654.000000 
M443.107727,1254.533813 
	C443.433655,1254.731445 443.759583,1254.929077 444.463867,1255.651733 
	C446.338013,1257.755371 448.360046,1259.746094 450.064148,1261.979492 
	C473.808044,1293.099487 500.037415,1321.809448 531.268616,1345.648682 
	C558.299805,1366.281738 587.748596,1381.997070 621.189880,1389.542969 
	C652.311584,1396.565552 683.505371,1393.998535 714.548401,1389.577393 
	C755.540466,1383.739380 794.519653,1371.141724 831.532715,1352.473267 
	C833.494019,1351.484009 836.820496,1351.494385 838.790771,1352.480103 
	C888.158997,1377.177002 940.318848,1390.540405 995.502075,1393.381714 
	C1031.192261,1395.219238 1064.653076,1388.432861 1096.430786,1372.554443 
	C1128.557007,1356.501587 1156.015015,1334.202637 1180.781616,1308.484253 
	C1221.320068,1266.387573 1253.169189,1218.097290 1280.422974,1166.681885 
	C1325.434570,1081.765381 1357.527588,992.156250 1376.686035,897.966736 
	C1379.062500,886.283508 1380.338745,874.376465 1382.724976,861.983337 
	C1382.884766,860.337769 1383.044434,858.692139 1383.581665,856.609741 
	C1383.617188,856.042969 1383.652710,855.476257 1383.923462,854.232117 
	C1383.993896,852.827942 1384.064209,851.423706 1384.524658,849.312134 
	C1384.585693,848.514465 1384.646606,847.716797 1384.938477,846.094727 
	C1385.305786,837.984558 1385.930298,829.876221 1385.990112,821.763794 
	C1386.141846,801.181824 1386.062622,780.598022 1386.024414,760.015015 
	C1386.015137,755.046143 1385.806274,750.077698 1385.747559,744.288757 
	C1382.171265,716.502502 1375.727051,689.410339 1365.951050,663.142151 
	C1343.982666,604.113159 1309.302612,553.781555 1261.898804,512.360291 
	C1250.019409,501.979919 1237.187744,492.689148 1224.562012,482.300537 
	C1223.068115,480.096893 1221.640503,477.844788 1220.070801,475.696686 
	C1185.816162,428.821869 1143.116943,391.608154 1091.912354,364.273468 
	C1059.734131,347.095642 1025.772583,334.709290 990.370483,327.212280 
	C1007.683716,316.897308 1026.487793,310.509613 1046.009033,305.948395 
	C1056.979736,303.385071 1068.477173,301.969543 1078.726318,297.642120 
	C1104.724976,286.664856 1119.211548,259.751129 1117.362061,231.486282 
	C1115.060913,196.314774 1084.003540,166.359665 1045.718750,170.016251 
	C1033.355103,171.197067 1021.154724,174.086502 1008.893677,175.445145 
	C1016.835022,162.574982 1019.969360,148.664001 1019.179749,133.515701 
	C1017.564819,102.533669 992.485596,75.633659 961.661316,71.890358 
	C949.637024,70.430130 938.126587,72.744400 926.525940,74.899017 
	C872.794189,84.878731 823.719604,105.695641 780.102478,138.749466 
	C767.942017,147.964874 756.657410,158.336105 744.678589,168.423325 
	C743.975769,167.260605 743.019104,165.748550 742.130554,164.197540 
	C726.449036,136.824722 705.596191,114.312721 678.969604,97.298813 
	C647.169067,76.978790 612.165833,68.219421 574.630737,68.333786 
	C526.486084,68.480476 478.340546,68.361580 430.195404,68.392181 
	C427.874176,68.393661 425.534760,68.604843 423.235138,68.936104 
	C411.932495,70.564255 402.940735,80.093956 403.132324,91.529190 
	C403.329803,103.315750 403.668823,115.246506 405.622437,126.831459 
	C413.660126,174.495071 436.510010,213.919174 473.537415,245.004623 
	C486.714813,256.067413 500.984558,265.497162 517.453430,272.533386 
	C518.347900,274.101868 519.318115,275.632416 520.124939,277.244751 
	C527.473999,291.930939 535.800171,305.973206 547.123962,318.893005 
	C547.085815,319.362915 547.047668,319.832825 546.122925,320.180237 
	C504.191162,321.721680 463.562286,329.781830 424.454773,345.019379 
	C344.641876,376.117065 281.933624,428.000031 237.160339,501.036102 
	C190.068436,577.854492 176.080963,661.528809 187.344299,750.121155 
	C191.649857,783.986877 198.276352,817.405579 206.897781,850.440308 
	C230.228790,939.837646 264.292725,1024.819946 311.789917,1104.191406 
	C340.753387,1152.591797 374.346588,1197.390503 417.257324,1234.523682 
	C425.385376,1241.557251 434.390106,1247.578003 443.004913,1253.999390 
	C443.004913,1253.999390 442.937866,1253.985840 443.107727,1254.533813 
M515.980835,1501.447144 
	C516.522095,1497.832397 517.246277,1494.234253 517.574219,1490.600220 
	C519.356628,1470.847046 509.885071,1455.801636 491.353027,1448.906982 
	C478.314453,1444.056030 464.883636,1444.007202 451.472015,1446.561646 
	C444.837311,1447.825195 438.323730,1450.005981 431.972107,1452.357422 
	C428.738495,1453.554565 426.566376,1456.323608 427.927063,1460.369385 
	C430.287354,1467.387085 438.779022,1470.306396 444.829041,1466.059326 
	C454.556946,1459.230103 465.410828,1456.935547 477.052612,1458.056030 
	C488.843262,1459.190796 497.712463,1466.766235 498.950989,1478.418213 
	C499.740295,1485.843750 499.312042,1493.828003 497.409668,1501.028076 
	C492.281158,1520.438232 479.990692,1535.334595 464.271729,1547.227295 
	C458.003601,1551.969604 450.755585,1555.768799 443.423920,1558.648926 
	C436.803589,1561.250000 434.407043,1558.840088 436.411865,1552.013550 
	C440.431915,1538.325073 444.449646,1524.557007 449.802063,1511.362671 
	C454.343292,1500.167969 460.726471,1489.716309 466.374695,1478.977905 
	C467.605621,1476.637939 468.874969,1474.613525 465.868042,1472.578735 
	C460.346466,1468.842041 449.982727,1470.903320 446.602448,1476.633911 
	C433.552979,1498.757324 424.722809,1522.529053 419.353119,1547.586060 
	C416.888916,1559.085205 422.102966,1567.575684 433.608398,1569.844116 
	C438.807495,1570.869263 444.816437,1570.965332 449.799622,1569.394409 
	C483.563599,1558.751343 505.228485,1535.864380 515.980835,1501.447144 
M986.342834,1560.931030 
	C990.498962,1555.218018 995.857056,1550.020142 998.570068,1543.688721 
	C1004.938782,1528.826172 1004.574829,1513.079590 1000.506409,1497.676758 
	C997.324707,1485.630371 990.633179,1475.824219 978.183899,1471.368530 
	C964.492249,1466.468140 944.544739,1468.229126 934.460815,1482.764526 
	C934.267395,1483.043335 933.668701,1483.041138 933.198059,1483.189331 
	C932.399780,1479.013428 931.633728,1475.006104 930.909607,1471.218140 
	C926.708374,1471.218140 923.133118,1471.218140 919.536621,1471.218140 
	C919.536621,1517.254761 919.536621,1562.923828 919.536621,1608.466309 
	C924.516724,1608.466309 929.071411,1608.466309 933.440063,1608.466309 
	C933.440063,1590.201538 933.440063,1572.378662 933.440063,1554.383423 
	C951.657959,1569.878052 968.497070,1572.065186 986.342834,1560.931030 
M1041.260498,1478.833374 
	C1040.242920,1469.859253 1039.485718,1469.413452 1028.464844,1471.476685 
	C1028.464844,1517.103271 1028.464844,1562.771484 1028.464844,1608.541016 
	C1033.365479,1608.541016 1037.916504,1608.541016 1042.450684,1608.541016 
	C1042.450684,1590.320312 1042.450684,1572.465332 1042.450684,1554.096069 
	C1043.263672,1554.838501 1043.852417,1555.325317 1044.383545,1555.868408 
	C1064.884888,1576.842896 1097.796631,1570.161011 1108.088623,1542.779785 
	C1113.655884,1527.968262 1113.523315,1512.683350 1109.487793,1497.639648 
	C1105.944824,1484.432495 1098.394165,1473.990967 1084.275635,1470.524048 
	C1068.047607,1466.539185 1053.583740,1469.421509 1042.444214,1483.817261 
	C1042.028076,1482.038452 1041.742310,1480.816895 1041.260498,1478.833374 
M830.580078,1525.783203 
	C843.566345,1525.786255 856.553650,1525.879395 869.538025,1525.724487 
	C872.498840,1525.689087 873.940491,1526.628662 874.988098,1529.415161 
	C879.140320,1540.458862 883.477478,1551.434937 887.917908,1562.366333 
	C888.497620,1563.793335 889.979370,1565.730713 891.206909,1565.858276 
	C895.390198,1566.293457 899.646729,1566.025024 904.396851,1566.025024 
	C903.599487,1563.666382 903.139038,1562.094727 902.544312,1560.575806 
	C887.213928,1521.418213 871.735596,1482.317383 856.694763,1443.049194 
	C854.784973,1438.063232 851.861328,1438.320923 847.954102,1438.167480 
	C844.021423,1438.012939 841.749207,1438.925659 840.169800,1443.021484 
	C828.747742,1472.640381 817.031433,1502.145752 805.419556,1531.691528 
	C800.994873,1542.949951 796.599487,1554.219727 791.971191,1566.045166 
	C796.084595,1566.045166 799.569519,1565.848389 803.020935,1566.104736 
	C806.017761,1566.327148 807.401062,1565.199341 808.438477,1562.392212 
	C812.182922,1552.259155 816.548645,1542.345093 819.999023,1532.118652 
	C821.737732,1526.965088 824.342712,1524.775391 830.580078,1525.783203 
M579.499329,1490.884888 
	C574.305298,1486.516357 568.294495,1485.989380 562.097534,1487.699463 
	C549.639587,1491.137451 540.483337,1499.289429 533.140564,1509.463379 
	C523.809143,1522.392700 518.405273,1536.643677 521.007874,1552.947876 
	C523.574219,1569.024536 538.800537,1576.033691 551.962524,1566.727051 
	C557.611511,1562.732788 561.990356,1556.942383 566.965515,1551.948853 
	C566.990967,1552.403198 567.069397,1553.302124 567.087341,1554.202393 
	C567.263672,1563.053711 570.458618,1568.200562 577.048096,1570.227783 
	C583.504333,1572.214233 592.151062,1569.177734 596.284241,1562.904785 
	C597.724426,1560.718994 597.917175,1557.711304 598.679626,1555.079102 
	C596.406616,1555.194458 594.066284,1555.002808 591.873474,1555.483887 
	C585.816345,1556.812622 582.719604,1554.723633 583.104126,1548.429932 
	C583.373535,1544.021362 584.156799,1539.424316 585.813782,1535.361206 
	C591.082031,1522.442505 596.838196,1509.722046 602.466553,1496.951538 
	C604.621399,1492.062500 603.458191,1489.151489 598.324097,1487.508911 
	C594.365845,1486.242554 590.767761,1486.733643 587.959412,1490.167358 
	C586.621582,1491.803223 585.244812,1493.407349 583.742859,1495.195923 
	C582.341553,1493.717163 581.205688,1492.518555 579.499329,1490.884888 
M696.362427,1537.917603 
	C699.174438,1536.902588 702.094116,1536.112915 704.779175,1534.831909 
	C714.372498,1530.254517 722.534546,1524.176025 725.386780,1513.194580 
	C728.762573,1500.197266 721.887512,1487.952148 710.129700,1487.334473 
	C704.202271,1487.023193 697.456787,1487.666504 692.278564,1490.264648 
	C670.990723,1500.945679 659.429382,1518.831055 657.611389,1542.520142 
	C656.646973,1555.087402 663.370361,1566.052124 673.811157,1569.041138 
	C687.630188,1572.997192 700.963623,1571.221069 712.410400,1561.937988 
	C714.672363,1560.103760 715.800171,1556.413696 716.538818,1553.359009 
	C716.888184,1551.914185 715.478821,1549.385620 714.110352,1548.425537 
	C713.260071,1547.829102 710.912720,1549.078613 709.377014,1549.798096 
	C703.572693,1552.517334 698.088318,1556.421509 692.000610,1557.926270 
	C680.336914,1560.809448 673.865417,1553.423828 676.470581,1541.548218 
	C682.879089,1540.386597 689.222229,1539.236694 696.362427,1537.917603 
M742.175537,1543.696289 
	C741.913513,1546.512329 741.464722,1549.325684 741.424377,1552.144897 
	C741.301758,1560.707031 745.037292,1566.995850 751.515076,1569.473755 
	C762.677673,1573.743774 779.035828,1566.422974 783.178711,1555.291260 
	C783.466309,1554.518311 783.941406,1553.647827 783.804077,1552.921875 
	C783.574219,1551.706299 783.199341,1550.241943 782.346008,1549.519287 
	C781.792603,1549.050781 780.127197,1549.433350 779.227478,1549.924316 
	C776.752625,1551.275513 774.506714,1553.053833 772.008789,1554.352905 
	C768.079773,1556.396484 763.077942,1558.480347 759.947083,1555.109253 
	C757.855103,1552.856689 757.688232,1547.557983 758.531982,1544.076172 
	C760.953552,1534.083496 764.664124,1524.408081 767.229126,1514.443604 
	C769.596924,1505.244751 773.797363,1499.872803 784.467102,1500.571289 
	C788.336060,1500.824463 792.580994,1497.482910 796.374084,1495.295532 
	C797.367859,1494.722412 797.995422,1492.063477 797.524048,1490.858032 
	C797.145081,1489.888916 794.869324,1489.250488 793.405945,1489.191406 
	C788.453186,1488.991943 783.487427,1489.115234 777.668091,1489.115234 
	C779.626099,1484.788330 781.379211,1481.086304 782.985596,1477.321777 
	C785.125183,1472.307739 783.922363,1468.360107 779.739746,1466.227051 
	C775.461548,1464.045166 771.530701,1465.175903 768.816406,1469.918579 
	C766.011658,1474.819214 763.439331,1479.880249 761.166443,1485.047485 
	C759.810364,1488.130005 758.334351,1489.753418 754.604248,1489.736694 
	C752.000122,1489.724976 749.167358,1491.032593 746.868225,1492.450562 
	C745.608582,1493.227417 744.417969,1495.639160 744.714661,1496.977051 
	C744.996399,1498.247070 747.142761,1499.327148 748.679321,1500.033813 
	C750.275757,1500.767944 752.124207,1500.954346 753.479980,1501.286621 
	C749.718567,1515.297974 746.021790,1529.068359 742.175537,1543.696289 
M626.014771,1500.981079 
	C625.272461,1504.867188 624.996826,1508.919312 623.687134,1512.603760 
	C621.238831,1519.490845 617.934021,1526.072510 615.462280,1532.952515 
	C612.887207,1540.119873 610.232727,1547.364990 608.789978,1554.804443 
	C607.209167,1562.955811 612.073425,1569.244263 619.609619,1570.637085 
	C627.639465,1572.121094 636.480408,1567.209351 638.503052,1560.140381 
	C639.580444,1556.374878 638.088867,1554.742432 634.388855,1555.637695 
	C625.999573,1557.667236 624.178650,1555.885376 626.464661,1547.601807 
	C627.391174,1544.244385 628.591187,1540.939941 629.939392,1537.725952 
	C633.092346,1530.209595 636.657227,1522.857422 639.583618,1515.257202 
	C641.961609,1509.081055 644.013367,1502.725708 645.534607,1496.290283 
	C646.720215,1491.275024 644.725464,1488.037231 639.882141,1487.553955 
	C635.232422,1487.089966 630.194885,1487.381226 625.759338,1488.744629 
	C620.886353,1490.242310 620.711609,1493.337158 624.167053,1497.226318 
	C624.913025,1498.066040 625.346252,1499.183594 626.014771,1500.981079 
M649.307007,1449.037231 
	C640.736328,1448.118164 634.559326,1451.047852 632.888428,1456.824585 
	C631.111084,1462.969360 634.821655,1470.139404 640.803833,1472.119629 
	C646.328064,1473.948242 653.446777,1469.801025 656.161987,1463.172241 
	C658.806152,1456.716675 657.033325,1452.674927 649.307007,1449.037231 
z"/>
<path fill="#E4E5E7" opacity="1.000000" stroke="none" 
	d="
M716.454102,1654.000000 
	C719.998047,1652.668945 723.981262,1650.239136 727.996399,1650.185181 
	C753.955383,1649.836426 779.922668,1649.878540 805.883423,1650.150269 
	C809.565491,1650.188843 813.227173,1652.170410 816.949158,1653.626343 
	C814.629456,1654.000000 812.258850,1654.000000 809.361084,1653.601318 
	C807.828735,1652.803955 806.824585,1652.060059 805.818542,1652.057495 
	C780.331604,1651.992554 754.844299,1651.979736 729.357666,1652.088867 
	C728.235779,1652.093628 727.119080,1653.334717 726.000000,1654.000000 
	C722.969421,1654.000000 719.938782,1654.000000 716.454102,1654.000000 
z"/>
<path fill="#FEFEFE" opacity="1.000000" stroke="none" 
	d="
M726.468628,1654.000000 
	C727.119080,1653.334717 728.235779,1652.093628 729.357666,1652.088867 
	C754.844299,1651.979736 780.331604,1651.992554 805.818542,1652.057495 
	C806.824585,1652.060059 807.828735,1652.803955 808.916870,1653.601318 
	C781.645752,1654.000000 754.291565,1654.000000 726.468628,1654.000000 
z"/>
<path fill="#C44797" opacity="1.000000" stroke="none" 
	d="
M1384.707642,846.919128 
	C1384.646606,847.716797 1384.585693,848.514465 1384.076050,849.814026 
	C1383.647705,851.847107 1383.667969,853.378296 1383.688232,854.909485 
	C1383.652710,855.476257 1383.617188,856.042969 1383.051514,857.064392 
	C1382.389160,859.203735 1382.256958,860.888428 1382.124756,862.573120 
	C1380.338745,874.376465 1379.062500,886.283508 1376.686035,897.966736 
	C1357.527588,992.156250 1325.434570,1081.765381 1280.422974,1166.681885 
	C1253.169189,1218.097290 1221.320068,1266.387573 1180.781616,1308.484253 
	C1156.015015,1334.202637 1128.557007,1356.501587 1096.430786,1372.554443 
	C1064.653076,1388.432861 1031.192261,1395.219238 995.502075,1393.381714 
	C940.318848,1390.540405 888.158997,1377.177002 838.790771,1352.480103 
	C836.820496,1351.494385 833.494019,1351.484009 831.532715,1352.473267 
	C794.519653,1371.141724 755.540466,1383.739380 714.548401,1389.577393 
	C683.505371,1393.998535 652.311584,1396.565552 621.189880,1389.542969 
	C587.748596,1381.997070 558.299805,1366.281738 531.268616,1345.648682 
	C500.037415,1321.809448 473.808044,1293.099487 450.064148,1261.979492 
	C448.360046,1259.746094 446.338013,1257.755371 444.158600,1255.128174 
	C443.548157,1254.398315 443.243011,1254.192139 442.937866,1253.985840 
	C442.937866,1253.985840 443.004913,1253.999390 443.030151,1253.663940 
	C442.792267,1252.555054 442.671692,1251.690796 442.245453,1251.021118 
	C428.341827,1229.179443 414.050720,1207.574951 400.568634,1185.476685 
	C382.729828,1156.237305 368.379547,1125.185669 354.856750,1093.766113 
	C348.024414,1077.891479 341.555267,1061.860474 334.955780,1045.517822 
	C334.859650,1044.488770 334.810608,1043.812500 334.588013,1043.199341 
	C311.486633,979.571350 293.808960,914.585815 285.547577,847.245605 
	C280.720215,807.896545 280.177307,768.610352 286.863495,729.367310 
	C299.345276,656.108704 330.892212,592.115784 381.745087,538.163574 
	C447.268982,468.646088 528.034485,429.283447 623.220093,419.819122 
	C665.347534,415.630432 706.949707,418.808929 748.065674,428.757812 
	C753.287170,430.021210 758.504028,431.303925 763.772522,432.589813 
	C765.533936,421.718597 767.205627,411.401306 769.118530,400.796448 
	C770.145325,397.640869 771.004211,394.790436 771.696838,391.900146 
	C772.453613,388.742004 771.239136,387.257843 767.850830,387.259613 
	C736.232483,387.276093 704.614136,387.222809 672.588684,387.154846 
	C655.083130,382.572662 637.984741,378.025391 620.803955,373.116272 
	C619.240601,371.756958 617.802246,370.688141 616.271729,369.773285 
	C604.516968,362.747009 592.755188,355.732239 580.961060,348.772400 
	C579.721252,348.040802 578.257874,347.687866 576.708801,347.078247 
	C576.519348,346.997253 576.130432,346.861176 576.068359,346.528259 
	C572.101868,342.441132 568.193787,338.690735 564.293884,334.931763 
	C558.503845,329.350922 552.719727,323.764038 546.933105,318.179688 
	C535.800171,305.973206 527.473999,291.930939 520.124939,277.244751 
	C519.318115,275.632416 518.347900,274.101868 517.230713,271.866455 
	C516.897095,270.380402 516.892822,269.529480 516.659424,268.746857 
	C512.714844,255.522598 508.374603,242.401993 504.915161,229.052872 
	C502.896393,221.262955 502.276184,213.110611 501.086487,204.646454 
	C501.107971,200.172668 501.125671,196.172287 501.021484,192.175095 
	C500.605560,176.221207 514.066345,166.671112 526.464111,166.774551 
	C580.620911,167.226395 634.784180,166.906342 689.380493,166.914658 
	C696.242554,167.720795 702.735352,168.123093 709.083618,169.303131 
	C728.405640,172.894867 746.976074,178.840591 764.335815,188.202347 
	C770.880066,191.731552 777.289795,195.510239 783.919678,199.473602 
	C788.215881,203.096375 792.482605,206.273849 796.461365,209.778198 
	C803.043701,215.575577 809.440491,221.583649 816.002930,227.815948 
	C816.790710,229.252640 817.438110,230.413620 818.199463,231.494202 
	C825.443420,241.774536 832.700500,252.045670 839.971069,262.307220 
	C841.069702,263.857727 842.257446,265.345093 843.349121,266.789185 
	C851.048279,259.880554 858.111023,253.125626 865.607666,246.892578 
	C890.397034,226.281250 917.690613,209.691681 947.240540,196.805832 
	C967.178223,188.111618 987.848145,181.613815 1008.879700,176.194351 
	C1021.154724,174.086502 1033.355103,171.197067 1045.718750,170.016251 
	C1084.003540,166.359665 1115.060913,196.314774 1117.362061,231.486282 
	C1119.211548,259.751129 1104.724976,286.664856 1078.726318,297.642120 
	C1068.477173,301.969543 1056.979736,303.385071 1046.009033,305.948395 
	C1026.487793,310.509613 1007.683716,316.897308 989.795471,327.562317 
	C988.133362,328.317749 986.950012,328.563538 985.973511,329.152374 
	C969.768372,338.923950 955.357178,350.878265 942.756287,364.990814 
	C941.825562,366.033203 941.447998,367.569366 940.502563,368.984985 
	C927.768982,383.112946 919.200867,399.251556 913.563477,417.374176 
	C911.979675,421.957428 910.614929,426.288727 908.922241,431.661041 
	C911.879700,431.324646 913.753723,431.256470 915.564514,430.882202 
	C927.828918,428.346954 940.082947,425.761322 952.332703,423.155884 
	C954.736450,422.644623 957.106689,421.976013 959.969971,421.294678 
	C966.077393,420.714569 971.713745,420.283234 977.336182,419.714539 
	C1010.312378,416.378967 1043.101562,418.078156 1075.730469,423.490204 
	C1085.379150,425.090637 1094.950073,427.160278 1104.519409,429.027679 
	C1104.482178,429.040436 1104.444092,428.971619 1104.656006,429.103973 
	C1105.117432,429.464386 1105.401611,429.634247 1106.093506,429.900208 
	C1116.421997,433.088928 1126.494751,435.789459 1136.308960,439.227875 
	C1156.211060,446.200653 1175.634399,454.337982 1193.948730,464.906097 
	C1204.258057,470.855194 1214.513794,476.897369 1224.793701,482.897614 
	C1237.187744,492.689148 1250.019409,501.979919 1261.898804,512.360291 
	C1309.302612,553.781555 1343.982666,604.113159 1365.951050,663.142151 
	C1375.727051,689.410339 1382.171265,716.502502 1385.488159,745.026489 
	C1385.150879,747.588684 1385.006104,749.413025 1385.005127,751.237488 
	C1384.990601,778.901672 1385.007202,806.565857 1384.982300,834.230042 
	C1384.978516,838.459778 1384.803467,842.689453 1384.707642,846.919128 
M802.627441,320.708862 
	C805.750244,316.064117 809.120300,311.557953 811.847778,306.691681 
	C812.684875,305.198151 812.438049,302.333801 811.536987,300.753235 
	C805.671387,290.464355 799.622314,280.272003 793.306396,270.254120 
	C791.909363,268.038239 789.201965,266.648499 786.756348,264.309967 
	C776.653137,253.293167 765.828918,243.156113 751.990112,235.572693 
	C737.766235,226.930435 722.650696,220.623535 705.354797,217.754059 
	C698.285461,216.849243 691.221008,215.206711 684.146057,215.160355 
	C641.050537,214.878082 597.952637,214.955017 554.855530,214.937637 
	C553.628662,214.937149 552.401672,215.221954 550.320679,215.479355 
	C552.351868,222.665283 554.233398,229.321472 556.101440,236.765167 
	C560.696838,247.302032 564.597534,258.220856 570.112732,268.252014 
	C574.342285,275.944794 580.608704,282.517700 586.186951,290.288818 
	C600.099365,306.375275 617.001831,318.408844 636.456299,327.560333 
	C636.662415,327.730072 636.896973,327.791687 637.665283,327.827087 
	C637.818298,327.902649 637.971252,327.978210 638.545044,328.591064 
	C639.218384,328.704651 639.891663,328.818268 640.663025,328.769836 
	C640.663025,328.769836 640.844788,328.823090 641.048279,329.550629 
	C641.655029,330.049805 642.184692,330.742920 642.879944,331.019501 
	C657.150635,336.696869 672.079041,340.402893 687.295410,340.718140 
	C721.017944,341.416809 754.764465,340.981567 788.500916,340.894379 
	C789.934937,340.890656 792.072021,340.139893 792.680908,339.060150 
	C796.005005,333.165009 798.952942,327.057800 802.627441,320.708862 
M881.497192,369.186493 
	C883.044678,366.865631 884.713684,364.615845 886.119995,362.212402 
	C895.156067,346.770111 906.982117,333.500336 919.371765,319.871155 
	C955.835815,285.535278 999.116455,265.060364 1048.244873,256.450195 
	C1051.508179,255.878281 1054.871582,255.431000 1057.937500,254.265381 
	C1066.875977,250.867004 1071.336426,241.105927 1068.842773,231.113510 
	C1066.584961,222.065720 1057.649048,216.656921 1046.993774,218.124161 
	C1041.398438,218.894653 1035.830444,219.922012 1030.292236,221.042099 
	C974.145203,232.397736 924.569824,256.713104 883.146973,296.605957 
	C874.449951,304.981812 867.039612,314.693756 858.493225,324.219757 
	C857.565979,325.170807 856.527954,326.037384 855.728149,327.085663 
	C845.093811,341.022705 836.371582,356.095856 829.254456,372.097534 
	C828.270935,374.308655 827.801331,376.748291 826.689514,379.664948 
	C817.085449,401.191132 812.939087,423.966003 811.342651,447.302124 
	C811.271423,448.342560 812.082825,450.025452 812.954285,450.456512 
	C820.245850,454.063416 827.387512,459.049774 835.112976,460.305054 
	C839.848816,461.074524 845.530884,456.022675 850.787537,453.583954 
	C852.295959,452.884125 853.741516,451.957428 855.322632,451.524353 
	C858.835449,450.562103 859.727112,448.243530 859.867371,444.852478 
	C860.502808,429.478577 863.398499,414.460510 868.576721,400.008392 
	C872.264038,389.717316 876.875244,379.757263 881.497192,369.186493 
M1080.901123,473.637207 
	C1064.779297,469.483032 1048.347168,467.892120 1031.761230,466.748444 
	C1008.939087,465.174744 986.323181,466.607208 963.709229,469.250916 
	C963.064392,469.326324 962.510376,470.178741 961.022827,470.724274 
	C958.372498,470.941132 955.682861,470.939514 953.077759,471.407837 
	C916.406860,477.999542 881.705994,490.203674 849.234497,508.495361 
	C839.586121,513.930420 830.597290,513.852234 820.934143,508.445038 
	C782.875366,487.148407 742.150757,473.986267 698.808289,468.717804 
	C660.222351,464.027496 622.016785,465.908813 584.217957,474.729340 
	C511.904022,491.604156 451.632263,528.449097 404.148315,585.514587 
	C357.998535,640.976624 333.487091,705.147217 330.219299,777.206909 
	C328.619965,812.474609 333.075623,847.338379 339.505585,881.947510 
	C348.519226,930.463135 362.125305,977.724121 379.106689,1024.014771 
	C403.099518,1089.418457 432.820496,1151.987305 472.000549,1209.804321 
	C475.065796,1214.327759 478.592346,1218.538574 482.024139,1223.607056 
	C482.428223,1224.326050 482.742950,1225.115845 483.249542,1225.753418 
	C493.477142,1238.626343 503.159515,1251.992676 514.140747,1264.188965 
	C524.008240,1275.148438 535.307129,1284.819214 546.266785,1295.657959 
	C548.544861,1297.604004 550.779358,1299.604004 553.107788,1301.487671 
	C575.455505,1319.566895 599.628662,1334.242065 627.783020,1341.491211 
	C652.337402,1347.813477 677.116333,1345.787354 701.741516,1342.708618 
	C744.140625,1337.407593 784.062439,1324.097046 821.329224,1303.133667 
	C830.830078,1297.789185 839.761841,1297.930176 849.203918,1303.192993 
	C898.588928,1330.719482 951.552795,1344.760010 1008.140259,1345.391479 
	C1028.153320,1345.614624 1047.161865,1341.644409 1065.388672,1333.704102 
	C1102.084961,1317.718018 1131.341919,1291.939941 1157.570068,1262.473633 
	C1196.296753,1218.965698 1226.220093,1169.608765 1251.505371,1117.415527 
	C1292.134155,1033.550415 1321.759033,946.099487 1335.394287,853.611694 
	C1339.803101,823.706604 1341.536865,793.694336 1339.167725,763.488037 
	C1336.100708,724.385498 1326.278198,687.026611 1308.733154,652.032043 
	C1300.351074,635.313599 1289.583130,619.791321 1279.540894,603.182922 
	C1273.593750,595.282104 1267.987549,587.094604 1261.632080,579.536987 
	C1245.876831,560.801697 1227.506348,544.792603 1208.069092,530.023254 
	C1203.400513,526.476013 1197.984619,523.912659 1192.395386,520.513916 
	C1191.003906,519.351318 1189.768188,517.889160 1188.197021,517.072021 
	C1171.244995,508.255066 1154.751587,498.272461 1137.107056,491.149994 
	C1119.180298,483.913544 1100.104126,479.525085 1080.901123,473.637207 
z"/>
<path fill="#5BB747" opacity="1.000000" stroke="none" 
	d="
M334.921875,1045.900269 
	C341.555267,1061.860474 348.024414,1077.891479 354.856750,1093.766113 
	C368.379547,1125.185669 382.729828,1156.237305 400.568634,1185.476685 
	C414.050720,1207.574951 428.341827,1229.179443 442.245453,1251.021118 
	C442.671692,1251.690796 442.792267,1252.555054 443.022827,1253.697266 
	C434.390106,1247.578003 425.385376,1241.557251 417.257324,1234.523682 
	C374.346588,1197.390503 340.753387,1152.591797 311.789917,1104.191406 
	C264.292725,1024.819946 230.228790,939.837646 206.897781,850.440308 
	C198.276352,817.405579 191.649857,783.986877 187.344299,750.121155 
	C176.080963,661.528809 190.068436,577.854492 237.160339,501.036102 
	C281.933624,428.000031 344.641876,376.117065 424.454773,345.019379 
	C463.562286,329.781830 504.191162,321.721680 546.734497,320.511230 
	C552.111694,325.908325 556.603943,331.273987 561.725952,335.949707 
	C566.156006,339.993744 571.301270,343.254303 576.130432,346.861176 
	C576.130432,346.861176 576.519348,346.997253 576.759399,347.411987 
	C578.085938,349.049713 578.966125,350.596191 580.292969,351.441986 
	C587.691467,356.157928 595.231201,360.651672 602.652405,365.332794 
	C605.868835,367.361664 608.917114,369.657074 611.624329,371.862488 
	C574.681091,366.313049 538.125977,366.387878 501.859558,373.273468 
	C411.525970,390.424377 339.509613,436.516205 287.277618,512.321289 
	C250.167969,566.179138 232.048447,626.277649 231.903259,691.750305 
	C231.819031,729.732361 237.276581,767.088867 245.371475,804.031860 
	C263.669312,887.538696 292.989838,967.092773 332.608032,1042.845947 
	C333.191772,1043.962158 334.142456,1044.886475 334.921875,1045.900269 
z"/>
<path fill="#5BB748" opacity="1.000000" stroke="none" 
	d="
M1008.886719,175.819748 
	C987.848145,181.613815 967.178223,188.111618 947.240540,196.805832 
	C917.690613,209.691681 890.397034,226.281250 865.607666,246.892578 
	C858.111023,253.125626 851.048279,259.880554 843.349121,266.789185 
	C842.257446,265.345093 841.069702,263.857727 839.971069,262.307220 
	C832.700500,252.045670 825.443420,241.774536 818.199463,231.494202 
	C817.438110,230.413620 816.790710,229.252640 816.221558,227.518524 
	C816.555908,226.643982 816.733032,226.354080 816.965759,226.119370 
	C852.940002,189.840317 896.614075,168.429733 946.490601,158.914734 
	C951.836731,157.894867 957.503540,157.106979 962.244568,154.688339 
	C970.304749,150.576492 973.223328,140.570740 970.114868,131.661163 
	C967.039856,122.847397 959.314148,118.506378 948.427307,120.068153 
	C912.185059,125.267357 877.891907,136.472916 845.666565,153.912216 
	C822.977600,166.190765 802.503845,181.499573 783.760864,199.175186 
	C777.289795,195.510239 770.880066,191.731552 764.335815,188.202347 
	C746.976074,178.840591 728.405640,172.894867 709.083618,169.303131 
	C702.735352,168.123093 696.242554,167.720795 689.280762,166.606674 
	C659.349121,134.063873 622.982117,117.152069 579.274597,116.887772 
	C538.631104,116.641998 497.985168,116.808052 457.340302,116.816879 
	C455.944061,116.817184 454.547913,117.077026 452.724762,117.258362 
	C458.788788,152.542068 474.587555,181.743225 501.026733,205.121323 
	C502.276184,213.110611 502.896393,221.262955 504.915161,229.052872 
	C508.374603,242.401993 512.714844,255.522598 516.659424,268.746857 
	C516.892822,269.529480 516.897095,270.380402 517.022583,271.593536 
	C500.984558,265.497162 486.714813,256.067413 473.537415,245.004623 
	C436.510010,213.919174 413.660126,174.495071 405.622437,126.831459 
	C403.668823,115.246506 403.329803,103.315750 403.132324,91.529190 
	C402.940735,80.093956 411.932495,70.564255 423.235138,68.936104 
	C425.534760,68.604843 427.874176,68.393661 430.195404,68.392181 
	C478.340546,68.361580 526.486084,68.480476 574.630737,68.333786 
	C612.165833,68.219421 647.169067,76.978790 678.969604,97.298813 
	C705.596191,114.312721 726.449036,136.824722 742.130554,164.197540 
	C743.019104,165.748550 743.975769,167.260605 744.678589,168.423325 
	C756.657410,158.336105 767.942017,147.964874 780.102478,138.749466 
	C823.719604,105.695641 872.794189,84.878731 926.525940,74.899017 
	C938.126587,72.744400 949.637024,70.430130 961.661316,71.890358 
	C992.485596,75.633659 1017.564819,102.533669 1019.179749,133.515701 
	C1019.969360,148.664001 1016.835022,162.574982 1008.886719,175.819748 
z"/>
<path fill="#5BB648" opacity="1.000000" stroke="none" 
	d="
M1104.444092,428.971619 
	C1104.444092,428.971619 1104.482178,429.040436 1104.353271,428.698914 
	C1075.088135,407.713623 1043.323730,392.471924 1009.201782,382.049591 
	C986.869629,375.228363 963.957092,371.461945 940.813232,368.875977 
	C941.447998,367.569366 941.825562,366.033203 942.756287,364.990814 
	C955.357178,350.878265 969.768372,338.923950 985.973511,329.152374 
	C986.950012,328.563538 988.133362,328.317749 989.568115,327.805908 
	C1025.772583,334.709290 1059.734131,347.095642 1091.912354,364.273468 
	C1143.116943,391.608154 1185.816162,428.821869 1220.070801,475.696686 
	C1221.640503,477.844788 1223.068115,480.096893 1224.677856,482.599060 
	C1214.513794,476.897369 1204.258057,470.855194 1193.948730,464.906097 
	C1175.634399,454.337982 1156.211060,446.200653 1136.308960,439.227875 
	C1126.494751,435.789459 1116.421997,433.088928 1105.948242,429.682770 
	C1105.101562,429.197906 1104.772827,429.084778 1104.444092,428.971619 
z"/>
<path fill="#5EB74C" opacity="1.000000" stroke="none" 
	d="
M515.911560,1501.859131 
	C505.228485,1535.864380 483.563599,1558.751343 449.799622,1569.394409 
	C444.816437,1570.965332 438.807495,1570.869263 433.608398,1569.844116 
	C422.102966,1567.575684 416.888916,1559.085205 419.353119,1547.586060 
	C424.722809,1522.529053 433.552979,1498.757324 446.602448,1476.633911 
	C449.982727,1470.903320 460.346466,1468.842041 465.868042,1472.578735 
	C468.874969,1474.613525 467.605621,1476.637939 466.374695,1478.977905 
	C460.726471,1489.716309 454.343292,1500.167969 449.802063,1511.362671 
	C444.449646,1524.557007 440.431915,1538.325073 436.411865,1552.013550 
	C434.407043,1558.840088 436.803589,1561.250000 443.423920,1558.648926 
	C450.755585,1555.768799 458.003601,1551.969604 464.271729,1547.227295 
	C479.990692,1535.334595 492.281158,1520.438232 497.409668,1501.028076 
	C499.312042,1493.828003 499.740295,1485.843750 498.950989,1478.418213 
	C497.712463,1466.766235 488.843262,1459.190796 477.052612,1458.056030 
	C465.410828,1456.935547 454.556946,1459.230103 444.829041,1466.059326 
	C438.779022,1470.306396 430.287354,1467.387085 427.927063,1460.369385 
	C426.566376,1456.323608 428.738495,1453.554565 431.972107,1452.357422 
	C438.323730,1450.005981 444.837311,1447.825195 451.472015,1446.561646 
	C464.883636,1444.007202 478.314453,1444.056030 491.353027,1448.906982 
	C509.885071,1455.801636 519.356628,1470.847046 517.574219,1490.600220 
	C517.246277,1494.234253 516.522095,1497.832397 515.911560,1501.859131 
z"/>
<path fill="#C34C98" opacity="1.000000" stroke="none" 
	d="
M986.038086,1561.126465 
	C968.497070,1572.065186 951.657959,1569.878052 933.440063,1554.383423 
	C933.440063,1572.378662 933.440063,1590.201538 933.440063,1608.466309 
	C929.071411,1608.466309 924.516724,1608.466309 919.536621,1608.466309 
	C919.536621,1562.923828 919.536621,1517.254761 919.536621,1471.218140 
	C923.133118,1471.218140 926.708374,1471.218140 930.909607,1471.218140 
	C931.633728,1475.006104 932.399780,1479.013428 933.198059,1483.189331 
	C933.668701,1483.041138 934.267395,1483.043335 934.460815,1482.764526 
	C944.544739,1468.229126 964.492249,1466.468140 978.183899,1471.368530 
	C990.633179,1475.824219 997.324707,1485.630371 1000.506409,1497.676758 
	C1004.574829,1513.079590 1004.938782,1528.826172 998.570068,1543.688721 
	C995.857056,1550.020142 990.498962,1555.218018 986.038086,1561.126465 
M955.571106,1481.893188 
	C945.392395,1483.092407 938.670105,1488.550903 936.059692,1498.467163 
	C932.741211,1511.073120 932.844299,1523.865234 935.896912,1536.457520 
	C939.068054,1549.539307 946.145325,1554.615601 960.881470,1555.529907 
	C971.455078,1556.186035 980.707092,1549.799438 984.719421,1538.653198 
	C989.066528,1526.576782 989.384521,1514.151733 986.054016,1501.862793 
	C981.840454,1486.315674 972.296631,1480.141724 955.571106,1481.893188 
z"/>
<path fill="#C34C98" opacity="1.000000" stroke="none" 
	d="
M1041.358521,1479.214355 
	C1041.742310,1480.816895 1042.028076,1482.038452 1042.444214,1483.817261 
	C1053.583740,1469.421509 1068.047607,1466.539185 1084.275635,1470.524048 
	C1098.394165,1473.990967 1105.944824,1484.432495 1109.487793,1497.639648 
	C1113.523315,1512.683350 1113.655884,1527.968262 1108.088623,1542.779785 
	C1097.796631,1570.161011 1064.884888,1576.842896 1044.383545,1555.868408 
	C1043.852417,1555.325317 1043.263672,1554.838501 1042.450684,1554.096069 
	C1042.450684,1572.465332 1042.450684,1590.320312 1042.450684,1608.541016 
	C1037.916504,1608.541016 1033.365479,1608.541016 1028.464844,1608.541016 
	C1028.464844,1562.771484 1028.464844,1517.103271 1028.464844,1471.476685 
	C1039.485718,1469.413452 1040.242920,1469.859253 1041.358521,1479.214355 
M1083.389160,1552.058350 
	C1086.226685,1548.869507 1089.955444,1546.112427 1091.745850,1542.416382 
	C1099.179565,1527.071289 1099.229614,1511.126099 1092.714478,1495.566284 
	C1087.975586,1484.248291 1079.053955,1480.446411 1064.641113,1481.887695 
	C1054.141479,1482.937500 1046.435547,1489.081543 1044.661255,1500.347168 
	C1043.153687,1509.919922 1043.413208,1519.847046 1043.704346,1529.593262 
	C1043.838989,1534.102051 1045.255249,1538.868164 1047.227661,1542.970825 
	C1053.043335,1555.067627 1068.691772,1559.056763 1083.389160,1552.058350 
z"/>
<path fill="#C34C98" opacity="1.000000" stroke="none" 
	d="
M830.096558,1525.782959 
	C824.342712,1524.775391 821.737732,1526.965088 819.999023,1532.118652 
	C816.548645,1542.345093 812.182922,1552.259155 808.438477,1562.392212 
	C807.401062,1565.199341 806.017761,1566.327148 803.020935,1566.104736 
	C799.569519,1565.848389 796.084595,1566.045166 791.971191,1566.045166 
	C796.599487,1554.219727 800.994873,1542.949951 805.419556,1531.691528 
	C817.031433,1502.145752 828.747742,1472.640381 840.169800,1443.021484 
	C841.749207,1438.925659 844.021423,1438.012939 847.954102,1438.167480 
	C851.861328,1438.320923 854.784973,1438.063232 856.694763,1443.049194 
	C871.735596,1482.317383 887.213928,1521.418213 902.544312,1560.575806 
	C903.139038,1562.094727 903.599487,1563.666382 904.396851,1566.025024 
	C899.646729,1566.025024 895.390198,1566.293457 891.206909,1565.858276 
	C889.979370,1565.730713 888.497620,1563.793335 887.917908,1562.366333 
	C883.477478,1551.434937 879.140320,1540.458862 874.988098,1529.415161 
	C873.940491,1526.628662 872.498840,1525.689087 869.538025,1525.724487 
	C856.553650,1525.879395 843.566345,1525.786255 830.096558,1525.782959 
M850.658081,1462.915649 
	C849.966736,1460.793091 849.275391,1458.670532 848.534790,1456.396729 
	C841.731445,1474.999878 835.033691,1493.314209 828.282593,1511.774414 
	C841.807556,1511.774414 854.978455,1511.774414 868.507385,1511.774414 
	C862.526672,1495.446533 856.706665,1479.557495 850.658081,1462.915649 
z"/>
<path fill="#5EB74C" opacity="1.000000" stroke="none" 
	d="
M579.784607,1491.102539 
	C581.205688,1492.518555 582.341553,1493.717163 583.742859,1495.195923 
	C585.244812,1493.407349 586.621582,1491.803223 587.959412,1490.167358 
	C590.767761,1486.733643 594.365845,1486.242554 598.324097,1487.508911 
	C603.458191,1489.151489 604.621399,1492.062500 602.466553,1496.951538 
	C596.838196,1509.722046 591.082031,1522.442505 585.813782,1535.361206 
	C584.156799,1539.424316 583.373535,1544.021362 583.104126,1548.429932 
	C582.719604,1554.723633 585.816345,1556.812622 591.873474,1555.483887 
	C594.066284,1555.002808 596.406616,1555.194458 598.679565,1555.079102 
	C597.917175,1557.711304 597.724426,1560.718994 596.284241,1562.904785 
	C592.151062,1569.177734 583.504333,1572.214233 577.048096,1570.227783 
	C570.458618,1568.200562 567.263672,1563.053711 567.087341,1554.202393 
	C567.069397,1553.302124 566.990967,1552.403198 566.965515,1551.948853 
	C561.990356,1556.942383 557.611511,1562.732788 551.962524,1566.727051 
	C538.800537,1576.033691 523.574219,1569.024536 521.007874,1552.947876 
	C518.405273,1536.643677 523.809143,1522.392700 533.140564,1509.463379 
	C540.483337,1499.289429 549.639587,1491.137451 562.097534,1487.699463 
	C568.294495,1485.989380 574.305298,1486.516357 579.784607,1491.102539 
M557.784668,1548.260376 
	C567.045776,1536.262573 573.131042,1522.679199 577.412903,1508.263184 
	C579.456970,1501.381348 573.921997,1495.995972 566.954529,1497.812622 
	C565.369446,1498.225952 563.714355,1498.783813 562.392395,1499.706299 
	C559.683777,1501.596436 556.796082,1503.444092 554.654358,1505.896362 
	C543.237366,1518.968506 537.586060,1534.254639 538.696594,1551.638794 
	C539.122253,1558.302368 544.155762,1560.389038 549.554382,1556.470215 
	C552.468018,1554.355347 554.773987,1551.403320 557.784668,1548.260376 
z"/>
<path fill="#5EB74C" opacity="1.000000" stroke="none" 
	d="
M695.963928,1538.002197 
	C689.222229,1539.236694 682.879089,1540.386597 676.470581,1541.548218 
	C673.865417,1553.423828 680.336914,1560.809448 692.000610,1557.926270 
	C698.088318,1556.421509 703.572693,1552.517334 709.377014,1549.798096 
	C710.912720,1549.078613 713.260071,1547.829102 714.110352,1548.425537 
	C715.478821,1549.385620 716.888184,1551.914185 716.538818,1553.359009 
	C715.800171,1556.413696 714.672363,1560.103760 712.410400,1561.937988 
	C700.963623,1571.221069 687.630188,1572.997192 673.811157,1569.041138 
	C663.370361,1566.052124 656.646973,1555.087402 657.611389,1542.520142 
	C659.429382,1518.831055 670.990723,1500.945679 692.278564,1490.264648 
	C697.456787,1487.666504 704.202271,1487.023193 710.129700,1487.334473 
	C721.887512,1487.952148 728.762573,1500.197266 725.386780,1513.194580 
	C722.534546,1524.176025 714.372498,1530.254517 704.779175,1534.831909 
	C702.094116,1536.112915 699.174438,1536.902588 695.963928,1538.002197 
M709.762024,1507.938599 
	C708.871216,1504.762451 708.680725,1499.456055 706.934509,1498.882080 
	C703.892517,1497.881958 699.869019,1499.706299 696.308716,1500.562012 
	C695.453430,1500.767578 694.777466,1501.793091 694.059143,1502.483276 
	C685.629761,1510.580322 681.601074,1521.017822 678.003235,1531.904175 
	C691.078857,1532.081055 705.115234,1521.632935 709.762024,1507.938599 
z"/>
<path fill="#5EB74C" opacity="1.000000" stroke="none" 
	d="
M742.250305,1543.267578 
	C746.021790,1529.068359 749.718567,1515.297974 753.479980,1501.286621 
	C752.124207,1500.954346 750.275757,1500.767944 748.679321,1500.033813 
	C747.142761,1499.327148 744.996399,1498.247070 744.714661,1496.977051 
	C744.417969,1495.639160 745.608582,1493.227417 746.868225,1492.450562 
	C749.167358,1491.032593 752.000122,1489.724976 754.604248,1489.736694 
	C758.334351,1489.753418 759.810364,1488.130005 761.166443,1485.047485 
	C763.439331,1479.880249 766.011658,1474.819214 768.816406,1469.918579 
	C771.530701,1465.175903 775.461548,1464.045166 779.739746,1466.227051 
	C783.922363,1468.360107 785.125183,1472.307739 782.985596,1477.321777 
	C781.379211,1481.086304 779.626099,1484.788330 777.668091,1489.115234 
	C783.487427,1489.115234 788.453186,1488.991943 793.405945,1489.191406 
	C794.869324,1489.250488 797.145081,1489.888916 797.524048,1490.858032 
	C797.995422,1492.063477 797.367859,1494.722412 796.374084,1495.295532 
	C792.580994,1497.482910 788.336060,1500.824463 784.467102,1500.571289 
	C773.797363,1499.872803 769.596924,1505.244751 767.229126,1514.443604 
	C764.664124,1524.408081 760.953552,1534.083496 758.531982,1544.076172 
	C757.688232,1547.557983 757.855103,1552.856689 759.947083,1555.109253 
	C763.077942,1558.480347 768.079773,1556.396484 772.008789,1554.352905 
	C774.506714,1553.053833 776.752625,1551.275513 779.227478,1549.924316 
	C780.127197,1549.433350 781.792603,1549.050781 782.346008,1549.519287 
	C783.199341,1550.241943 783.574219,1551.706299 783.804077,1552.921875 
	C783.941406,1553.647827 783.466309,1554.518311 783.178711,1555.291260 
	C779.035828,1566.422974 762.677673,1573.743774 751.515076,1569.473755 
	C745.037292,1566.995850 741.301758,1560.707031 741.424377,1552.144897 
	C741.464722,1549.325684 741.913513,1546.512329 742.250305,1543.267578 
z"/>
<path fill="#5EB74C" opacity="1.000000" stroke="none" 
	d="
M625.969116,1500.577148 
	C625.346252,1499.183594 624.913025,1498.066040 624.167053,1497.226318 
	C620.711609,1493.337158 620.886353,1490.242310 625.759338,1488.744629 
	C630.194885,1487.381226 635.232422,1487.089966 639.882141,1487.553955 
	C644.725464,1488.037231 646.720215,1491.275024 645.534607,1496.290283 
	C644.013367,1502.725708 641.961609,1509.081055 639.583618,1515.257202 
	C636.657227,1522.857422 633.092346,1530.209595 629.939392,1537.725952 
	C628.591187,1540.939941 627.391174,1544.244385 626.464661,1547.601807 
	C624.178650,1555.885376 625.999573,1557.667236 634.388855,1555.637695 
	C638.088867,1554.742432 639.580444,1556.374878 638.503052,1560.140381 
	C636.480408,1567.209351 627.639465,1572.121094 619.609619,1570.637085 
	C612.073425,1569.244263 607.209167,1562.955811 608.789978,1554.804443 
	C610.232727,1547.364990 612.887207,1540.119873 615.462280,1532.952515 
	C617.934021,1526.072510 621.238831,1519.490845 623.687134,1512.603760 
	C624.996826,1508.919312 625.272461,1504.867188 625.969116,1500.577148 
z"/>
<path fill="#5EB74C" opacity="1.000000" stroke="none" 
	d="
M649.677002,1449.134277 
	C657.033325,1452.674927 658.806152,1456.716675 656.161987,1463.172241 
	C653.446777,1469.801025 646.328064,1473.948242 640.803833,1472.119629 
	C634.821655,1470.139404 631.111084,1462.969360 632.888428,1456.824585 
	C634.559326,1451.047852 640.736328,1448.118164 649.677002,1449.134277 
z"/>
<path fill="#C34C98" opacity="1.000000" stroke="none" 
	d="
M1384.822998,846.506958 
	C1384.803467,842.689453 1384.978516,838.459778 1384.982300,834.230042 
	C1385.007202,806.565857 1384.990601,778.901672 1385.005127,751.237488 
	C1385.006104,749.413025 1385.150879,747.588684 1385.458984,745.436646 
	C1385.806274,750.077698 1386.015137,755.046143 1386.024414,760.015015 
	C1386.062622,780.598022 1386.141846,801.181824 1385.990112,821.763794 
	C1385.930298,829.876221 1385.305786,837.984558 1384.822998,846.506958 
z"/>
<path fill="#88876E" opacity="1.000000" stroke="none" 
	d="
M576.068359,346.528259 
	C571.301270,343.254303 566.156006,339.993744 561.725952,335.949707 
	C556.603943,331.273987 552.111694,325.908325 547.177795,320.572479 
	C547.047668,319.832825 547.085815,319.362915 547.028564,318.536346 
	C552.719727,323.764038 558.503845,329.350922 564.293884,334.931763 
	C568.193787,338.690735 572.101868,342.441132 576.068359,346.528259 
z"/>
<path fill="#C34C98" opacity="1.000000" stroke="none" 
	d="
M1383.805908,854.570801 
	C1383.667969,853.378296 1383.647705,851.847107 1383.881104,850.167725 
	C1384.064209,851.423706 1383.993896,852.827942 1383.805908,854.570801 
z"/>
<path fill="#C34C98" opacity="1.000000" stroke="none" 
	d="
M1382.424805,862.278198 
	C1382.256958,860.888428 1382.389160,859.203735 1382.862793,857.282837 
	C1383.044434,858.692139 1382.884766,860.337769 1382.424805,862.278198 
z"/>
<path fill="#5BB747" opacity="1.000000" stroke="none" 
	d="
M443.022797,1254.259766 
	C443.243011,1254.192139 443.548157,1254.398315 443.969421,1254.865479 
	C443.759583,1254.929077 443.433655,1254.731445 443.022797,1254.259766 
z"/>
<path fill="#FFFFFF" opacity="1.000000" stroke="none" 
	d="
M481.904541,1222.894653 
	C478.592346,1218.538574 475.065796,1214.327759 472.000549,1209.804321 
	C432.820496,1151.987305 403.099518,1089.418457 379.106689,1024.014771 
	C362.125305,977.724121 348.519226,930.463135 339.505585,881.947510 
	C333.075623,847.338379 328.619965,812.474609 330.219299,777.206909 
	C333.487091,705.147217 357.998535,640.976624 404.148315,585.514587 
	C451.632263,528.449097 511.904022,491.604156 584.217957,474.729340 
	C622.016785,465.908813 660.222351,464.027496 698.808289,468.717804 
	C742.150757,473.986267 782.875366,487.148407 820.934143,508.445038 
	C830.597290,513.852234 839.586121,513.930420 849.234497,508.495361 
	C881.705994,490.203674 916.406860,477.999542 953.077759,471.407837 
	C955.682861,470.939514 958.372498,470.941132 961.860962,470.800720 
	C973.777771,474.276123 985.063354,477.123779 995.892944,481.186646 
	C1019.822144,490.163910 1041.581421,503.002686 1060.482666,519.858337 
	C1043.525146,518.536987 1026.989380,516.465576 1010.416565,516.107605 
	C994.877258,515.771973 984.153870,531.668213 988.667114,546.569153 
	C992.013550,557.617737 1000.823242,563.852905 1013.743591,563.951599 
	C1043.541626,564.179260 1072.196777,570.033752 1099.658447,581.498169 
	C1105.878784,584.094971 1111.657593,587.749390 1117.767822,591.283386 
	C1130.486084,617.802917 1138.429565,645.240295 1140.602539,674.249939 
	C1141.148193,681.535278 1140.877197,688.926880 1141.983154,696.115479 
	C1144.078613,709.734192 1157.469238,718.241577 1170.911011,715.118408 
	C1182.670532,712.386047 1190.193237,702.590027 1189.487183,689.125916 
	C1188.705322,674.214661 1186.902100,659.356934 1185.822754,644.731445 
	C1207.369019,669.629761 1222.417603,697.678589 1230.875977,729.048767 
	C1233.779175,739.815918 1234.762085,751.100891 1236.455811,762.533691 
	C1228.908447,808.667908 1217.642822,853.464478 1202.927490,897.383972 
	C1176.627686,975.879150 1142.677368,1050.700195 1095.117310,1118.824707 
	C1069.524292,1155.483887 1040.450195,1188.971436 1003.583008,1214.938354 
	C982.397095,1229.860474 959.591248,1241.352051 933.735840,1245.450928 
	C908.089783,1249.516724 882.543030,1246.718506 857.203552,1242.515747 
	C819.270813,1236.224609 783.550537,1223.384644 750.016663,1204.548584 
	C741.265320,1199.632690 732.816040,1199.903320 723.901489,1204.494995 
	C711.338135,1210.966187 698.707947,1217.417969 685.678772,1222.853149 
	C652.066895,1236.874512 616.869507,1244.475098 580.563477,1246.769775 
	C560.196045,1248.057007 539.747864,1247.984253 520.405823,1240.510132 
	C507.265198,1235.432373 494.717438,1228.820435 481.904541,1222.894653 
z"/>
<path fill="#FEFEFE" opacity="1.000000" stroke="none" 
	d="
M1279.895874,603.727234 
	C1289.583130,619.791321 1300.351074,635.313599 1308.733154,652.032043 
	C1326.278198,687.026611 1336.100708,724.385498 1339.167725,763.488037 
	C1341.536865,793.694336 1339.803101,823.706604 1335.394287,853.611694 
	C1321.759033,946.099487 1292.134155,1033.550415 1251.505371,1117.415527 
	C1226.220093,1169.608765 1196.296753,1218.965698 1157.570068,1262.473633 
	C1131.341919,1291.939941 1102.084961,1317.718018 1065.388672,1333.704102 
	C1047.161865,1341.644409 1028.153320,1345.614624 1008.140259,1345.391479 
	C951.552795,1344.760010 898.588928,1330.719482 849.203918,1303.192993 
	C839.761841,1297.930176 830.830078,1297.789185 821.329224,1303.133667 
	C784.062439,1324.097046 744.140625,1337.407593 701.741516,1342.708618 
	C677.116333,1345.787354 652.337402,1347.813477 627.783020,1341.491211 
	C599.628662,1334.242065 575.455505,1319.566895 553.107788,1301.487671 
	C550.779358,1299.604004 548.544861,1297.604004 546.583252,1295.307251 
	C567.006775,1294.231079 587.252991,1294.752075 607.192505,1292.525757 
	C651.397278,1287.590454 693.354370,1274.457275 733.146240,1254.447266 
	C735.235168,1253.396729 738.771118,1253.414307 740.872192,1254.461670 
	C793.093750,1280.494751 848.246216,1294.275391 906.653015,1295.394043 
	C930.960205,1295.859741 954.371582,1292.109131 977.071289,1283.586670 
	C1014.735046,1269.445923 1046.271729,1246.076660 1074.731079,1218.233154 
	C1105.134888,1188.487427 1130.596191,1154.773804 1153.107788,1118.796387 
	C1202.566895,1039.752197 1237.954712,954.578308 1262.916138,864.948425 
	C1267.861328,847.191589 1271.595825,829.097595 1276.106201,810.886353 
	C1284.978760,804.485718 1288.370605,795.917480 1287.791748,785.586304 
	C1287.197998,774.988159 1286.492920,764.396240 1285.904053,753.397095 
	C1286.650635,746.554382 1287.860352,740.120789 1287.915771,733.677307 
	C1288.141357,707.391296 1288.031738,681.102295 1287.991821,654.814453 
	C1287.987183,651.831909 1287.915039,648.803284 1287.411743,645.875549 
	C1284.993652,631.811157 1282.416382,617.774048 1279.895874,603.727234 
z"/>
<path fill="#FEFEFE" opacity="1.000000" stroke="none" 
	d="
M334.955811,1045.517822 
	C334.142456,1044.886475 333.191772,1043.962158 332.608032,1042.845947 
	C292.989838,967.092773 263.669312,887.538696 245.371475,804.031860 
	C237.276581,767.088867 231.819031,729.732361 231.903259,691.750305 
	C232.048447,626.277649 250.167969,566.179138 287.277618,512.321289 
	C339.509613,436.516205 411.525970,390.424377 501.859558,373.273468 
	C538.125977,366.387878 574.681091,366.313049 611.987305,372.016815 
	C615.473999,372.586090 618.180115,373.032104 620.886292,373.478119 
	C637.984741,378.025391 655.083130,382.572662 672.844482,387.372314 
	C690.712097,395.569214 708.000122,403.340210 725.085510,411.533661 
	C733.248169,415.448181 741.001831,415.626831 748.960815,411.425964 
	C755.576233,407.934265 762.236755,404.528076 768.877319,401.083984 
	C767.205627,411.401306 765.533936,421.718597 763.772522,432.589813 
	C758.504028,431.303925 753.287170,430.021210 748.065674,428.757812 
	C706.949707,418.808929 665.347534,415.630432 623.220093,419.819122 
	C528.034485,429.283447 447.268982,468.646088 381.745087,538.163574 
	C330.892212,592.115784 299.345276,656.108704 286.863495,729.367310 
	C280.177307,768.610352 280.720215,807.896545 285.547577,847.245605 
	C293.808960,914.585815 311.486633,979.571350 334.588013,1043.199341 
	C334.810608,1043.812500 334.859650,1044.488770 334.955811,1045.517822 
z"/>
<path fill="#5BB747" opacity="1.000000" stroke="none" 
	d="
M1275.888550,811.159058 
	C1271.595825,829.097595 1267.861328,847.191589 1262.916138,864.948425 
	C1237.954712,954.578308 1202.566895,1039.752197 1153.107788,1118.796387 
	C1130.596191,1154.773804 1105.134888,1188.487427 1074.731079,1218.233154 
	C1046.271729,1246.076660 1014.735046,1269.445923 977.071289,1283.586670 
	C954.371582,1292.109131 930.960205,1295.859741 906.653015,1295.394043 
	C848.246216,1294.275391 793.093750,1280.494751 740.872192,1254.461670 
	C738.771118,1253.414307 735.235168,1253.396729 733.146240,1254.447266 
	C693.354370,1274.457275 651.397278,1287.590454 607.192505,1292.525757 
	C587.252991,1294.752075 567.006775,1294.231079 546.437195,1295.007446 
	C535.307129,1284.819214 524.008240,1275.148438 514.140747,1264.188965 
	C503.159515,1251.992676 493.477142,1238.626343 483.249542,1225.753418 
	C482.742950,1225.115845 482.428223,1224.326050 481.964355,1223.250854 
	C494.717438,1228.820435 507.265198,1235.432373 520.405823,1240.510132 
	C539.747864,1247.984253 560.196045,1248.057007 580.563477,1246.769775 
	C616.869507,1244.475098 652.066895,1236.874512 685.678772,1222.853149 
	C698.707947,1217.417969 711.338135,1210.966187 723.901489,1204.494995 
	C732.816040,1199.903320 741.265320,1199.632690 750.016663,1204.548584 
	C783.550537,1223.384644 819.270813,1236.224609 857.203552,1242.515747 
	C882.543030,1246.718506 908.089783,1249.516724 933.735840,1245.450928 
	C959.591248,1241.352051 982.397095,1229.860474 1003.583008,1214.938354 
	C1040.450195,1188.971436 1069.524292,1155.483887 1095.117310,1118.824707 
	C1142.677368,1050.700195 1176.627686,975.879150 1202.927490,897.383972 
	C1217.642822,853.464478 1228.908447,808.667908 1236.753540,762.913025 
	C1237.869507,770.793945 1238.701660,778.670227 1239.129883,786.568359 
	C1239.734375,797.720947 1243.186646,807.068481 1254.176392,811.949036 
	C1261.503418,815.202942 1268.739258,813.867737 1275.888550,811.159058 
z"/>
<path fill="#5BB647" opacity="1.000000" stroke="none" 
	d="
M706.108032,218.054352 
	C722.650696,220.623535 737.766235,226.930435 752.034668,236.186249 
	C746.989624,245.385071 741.559143,253.788986 736.876099,262.590607 
	C724.305054,286.217560 717.147278,311.563507 713.440613,338.053162 
	C711.254150,338.359100 709.471924,338.964874 707.704163,338.924896 
	C698.160645,338.709229 688.591553,338.673981 679.092224,337.863007 
	C674.632141,337.482239 670.308716,335.500763 665.968201,333.805176 
	C668.415649,319.022247 670.818298,304.678894 673.280212,289.981598 
	C671.564453,289.981598 669.752136,289.989075 667.939880,289.980499 
	C640.616333,289.851105 613.292786,289.719635 585.969238,289.588684 
	C580.608704,282.517700 574.342285,275.944794 570.112732,268.252014 
	C564.597534,258.220856 560.696838,247.302032 556.490967,236.421631 
	C565.369385,237.705582 573.831116,240.558395 582.351929,240.747269 
	C618.158081,241.541000 653.981689,241.567383 689.799561,241.720749 
	C691.236816,241.726929 693.274475,240.530807 694.023254,239.287247 
	C698.222900,232.312836 702.112549,225.151718 706.108032,218.054352 
z"/>
<path fill="#FEFEFE" opacity="1.000000" stroke="none" 
	d="
M501.086487,204.646454 
	C474.587555,181.743225 458.788788,152.542068 452.724762,117.258362 
	C454.547913,117.077026 455.944061,116.817184 457.340302,116.816879 
	C497.985168,116.808052 538.631104,116.641998 579.274597,116.887772 
	C622.982117,117.152069 659.349121,134.063873 688.845337,166.558487 
	C634.784180,166.906342 580.620911,167.226395 526.464111,166.774551 
	C514.066345,166.671112 500.605560,176.221207 501.021484,192.175095 
	C501.125671,196.172287 501.107971,200.172668 501.086487,204.646454 
z"/>
<path fill="#FEFDFE" opacity="1.000000" stroke="none" 
	d="
M859.036316,323.790039 
	C867.039612,314.693756 874.449951,304.981812 883.146973,296.605957 
	C924.569824,256.713104 974.145203,232.397736 1030.292236,221.042099 
	C1035.830444,219.922012 1041.398438,218.894653 1046.993774,218.124161 
	C1057.649048,216.656921 1066.584961,222.065720 1068.842773,231.113510 
	C1071.336426,241.105927 1066.875977,250.867004 1057.937500,254.265381 
	C1054.871582,255.431000 1051.508179,255.878281 1048.244873,256.450195 
	C999.116455,265.060364 955.835815,285.535278 918.608398,319.971863 
	C898.242188,321.311737 878.639221,322.550903 859.036316,323.790039 
z"/>
<path fill="#FDFEFC" opacity="1.000000" stroke="none" 
	d="
M783.919678,199.473602 
	C802.503845,181.499573 822.977600,166.190765 845.666565,153.912216 
	C877.891907,136.472916 912.185059,125.267357 948.427307,120.068153 
	C959.314148,118.506378 967.039856,122.847397 970.114868,131.661163 
	C973.223328,140.570740 970.304749,150.576492 962.244568,154.688339 
	C957.503540,157.106979 951.836731,157.894867 946.490601,158.914734 
	C896.614075,168.429733 852.940002,189.840317 816.965759,226.119370 
	C816.733032,226.354080 816.555908,226.643982 816.134155,227.205505 
	C809.440491,221.583649 803.043701,215.575577 796.461365,209.778198 
	C792.482605,206.273849 788.215881,203.096375 783.919678,199.473602 
z"/>
<path fill="#5CB549" opacity="1.000000" stroke="none" 
	d="
M1279.718384,603.455078 
	C1282.416382,617.774048 1284.993652,631.811157 1287.411743,645.875549 
	C1287.915039,648.803284 1287.987183,651.831909 1287.991821,654.814453 
	C1288.031738,681.102295 1288.141357,707.391296 1287.915771,733.677307 
	C1287.860352,740.120789 1286.650635,746.554382 1285.681885,753.118530 
	C1284.010620,746.425293 1282.590576,739.613586 1281.254517,732.785461 
	C1276.997314,711.027832 1269.923462,690.173767 1259.679565,670.573547 
	C1252.389160,656.623840 1243.855225,643.324097 1235.886963,629.432129 
	C1235.594604,628.734802 1235.291260,628.339661 1234.979736,627.973328 
	C1234.971436,628.002197 1235.024170,628.030579 1235.194458,627.625122 
	C1230.769653,611.114380 1226.786499,594.802063 1221.427002,578.955261 
	C1214.483765,558.425964 1203.884277,539.532471 1192.912354,520.896790 
	C1197.984619,523.912659 1203.400513,526.476013 1208.069092,530.023254 
	C1227.506348,544.792603 1245.876831,560.801697 1261.632080,579.536987 
	C1267.987549,587.094604 1273.593750,595.282104 1279.718384,603.455078 
z"/>
<path fill="#FDFDFC" opacity="1.000000" stroke="none" 
	d="
M1192.653809,520.705322 
	C1203.884277,539.532471 1214.483765,558.425964 1221.427002,578.955261 
	C1226.786499,594.802063 1230.769653,611.114380 1234.862305,627.546143 
	C1220.308228,609.365540 1204.738281,592.246155 1186.373535,577.963623 
	C1174.969238,569.094482 1162.829834,561.170471 1150.935791,552.492798 
	C1140.141235,533.637329 1127.232788,516.734802 1112.088623,501.679169 
	C1102.334229,491.981903 1091.745850,483.123688 1081.531250,473.889404 
	C1100.104126,479.525085 1119.180298,483.913544 1137.107056,491.149994 
	C1154.751587,498.272461 1171.244995,508.255066 1188.197021,517.072021 
	C1189.768188,517.889160 1191.003906,519.351318 1192.653809,520.705322 
z"/>
<path fill="#FDFDFD" opacity="1.000000" stroke="none" 
	d="
M940.502563,368.984985 
	C963.957092,371.461945 986.869629,375.228363 1009.201782,382.049591 
	C1043.323730,392.471924 1075.088135,407.713623 1104.390625,428.686157 
	C1094.950073,427.160278 1085.379150,425.090637 1075.730469,423.490204 
	C1043.101562,418.078156 1010.312378,416.378967 977.336182,419.714539 
	C971.713745,420.283234 966.077393,420.714569 959.599060,421.232330 
	C943.761292,419.877563 928.771973,418.499878 913.782654,417.122192 
	C919.200867,399.251556 927.768982,383.112946 940.502563,368.984985 
z"/>
<path fill="#5CB549" opacity="1.000000" stroke="none" 
	d="
M1081.216187,473.763306 
	C1091.745850,483.123688 1102.334229,491.981903 1112.088623,501.679169 
	C1127.232788,516.734802 1140.141235,533.637329 1150.582520,552.485718 
	C1131.791992,542.822632 1112.814697,533.847107 1092.543335,527.987732 
	C1082.082153,524.963989 1071.445435,522.547302 1060.888062,519.856323 
	C1041.581421,503.002686 1019.822144,490.163910 995.892944,481.186646 
	C985.063354,477.123779 973.777771,474.276123 962.306519,470.773010 
	C962.510376,470.178741 963.064392,469.326324 963.709229,469.250916 
	C986.323181,466.607208 1008.939087,465.174744 1031.761230,466.748444 
	C1048.347168,467.892120 1064.779297,469.483032 1081.216187,473.763306 
z"/>
<path fill="#FDFEFD" opacity="1.000000" stroke="none" 
	d="
M713.851501,338.054932 
	C717.147278,311.563507 724.305054,286.217560 736.876099,262.590607 
	C741.559143,253.788986 746.989624,245.385071 752.250488,236.485352 
	C765.828918,243.156113 776.653137,253.293167 786.812500,264.857483 
	C786.631897,265.911591 786.395142,266.418182 785.918701,267.189575 
	C773.201233,289.392792 765.011047,312.742676 762.302673,338.301025 
	C761.376892,339.097748 760.620972,339.932648 759.860474,339.936798 
	C745.443909,340.015442 731.026489,340.031830 716.610474,339.913879 
	C715.685791,339.906281 714.770935,338.702332 713.851501,338.054932 
z"/>
<path fill="#FEFDFE" opacity="1.000000" stroke="none" 
	d="
M881.074219,369.649506 
	C876.875244,379.757263 872.264038,389.717316 868.576721,400.008392 
	C863.398499,414.460510 860.502808,429.478577 859.867371,444.852478 
	C859.727112,448.243530 858.835449,450.562103 855.322632,451.524353 
	C853.741516,451.957428 852.295959,452.884125 850.787537,453.583954 
	C845.530884,456.022675 839.848816,461.074524 835.112976,460.305054 
	C827.387512,459.049774 820.245850,454.063416 812.954285,450.456512 
	C812.082825,450.025452 811.271423,448.342560 811.342651,447.302124 
	C812.939087,423.966003 817.085449,401.191132 827.289795,379.340942 
	C845.618103,375.894501 863.346191,372.772003 881.074219,369.649506 
z"/>
<path fill="#FDFEFC" opacity="1.000000" stroke="none" 
	d="
M705.731445,217.904205 
	C702.112549,225.151718 698.222900,232.312836 694.023254,239.287247 
	C693.274475,240.530807 691.236816,241.726929 689.799561,241.720749 
	C653.981689,241.567383 618.158081,241.541000 582.351929,240.747269 
	C573.831116,240.558395 565.369385,237.705582 556.497681,236.027878 
	C554.233398,229.321472 552.351868,222.665283 550.320679,215.479355 
	C552.401672,215.221954 553.628662,214.937149 554.855530,214.937637 
	C597.952637,214.955017 641.050537,214.878082 684.146057,215.160355 
	C691.221008,215.206711 698.285461,216.849243 705.731445,217.904205 
z"/>
<path fill="#5CB549" opacity="1.000000" stroke="none" 
	d="
M881.285706,369.417999 
	C863.346191,372.772003 845.618103,375.894501 827.491943,379.049561 
	C827.801331,376.748291 828.270935,374.308655 829.254456,372.097534 
	C836.371582,356.095856 845.093811,341.022705 855.728149,327.085663 
	C856.527954,326.037384 857.565979,325.170807 858.764771,324.004883 
	C878.639221,322.550903 898.242188,321.311737 918.285645,320.117981 
	C906.982117,333.500336 895.156067,346.770111 886.119995,362.212402 
	C884.713684,364.615845 883.044678,366.865631 881.285706,369.417999 
z"/>
<path fill="#FDFEFC" opacity="1.000000" stroke="none" 
	d="
M586.078125,289.938751 
	C613.292786,289.719635 640.616333,289.851105 667.939880,289.980499 
	C669.752136,289.989075 671.564453,289.981598 673.280212,289.981598 
	C670.818298,304.678894 668.415649,319.022247 665.571289,333.765930 
	C657.034607,332.385193 648.939697,330.604156 640.844788,328.823120 
	C640.844788,328.823090 640.663025,328.769836 640.390259,328.584534 
	C639.453003,328.284058 638.788635,328.168915 638.124207,328.053772 
	C637.971252,327.978210 637.818298,327.902649 637.311340,327.633881 
	C636.760986,327.260803 636.531433,327.193115 636.268738,327.237610 
	C617.001831,318.408844 600.099365,306.375275 586.078125,289.938751 
z"/>
<path fill="#60B34C" opacity="1.000000" stroke="none" 
	d="
M769.118530,400.796448 
	C762.236755,404.528076 755.576233,407.934265 748.960815,411.425964 
	C741.001831,415.626831 733.248169,415.448181 725.085510,411.533661 
	C708.000122,403.340210 690.712097,395.569214 673.251587,387.407227 
	C704.614136,387.222809 736.232483,387.276093 767.850830,387.259613 
	C771.239136,387.257843 772.453613,388.742004 771.696838,391.900146 
	C771.004211,394.790436 770.145325,397.640869 769.118530,400.796448 
z"/>
<path fill="#60B34C" opacity="1.000000" stroke="none" 
	d="
M913.563477,417.374176 
	C928.771973,418.499878 943.761292,419.877563 959.121521,421.317627 
	C957.106689,421.976013 954.736450,422.644623 952.332703,423.155884 
	C940.082947,425.761322 927.828918,428.346954 915.564514,430.882202 
	C913.753723,431.256470 911.879700,431.324646 908.922241,431.661041 
	C910.614929,426.288727 911.979675,421.957428 913.563477,417.374176 
z"/>
<path fill="#88876E" opacity="1.000000" stroke="none" 
	d="
M640.946533,329.186890 
	C648.939697,330.604156 657.034607,332.385193 665.526489,334.205444 
	C670.308716,335.500763 674.632141,337.482239 679.092224,337.863007 
	C688.591553,338.673981 698.160645,338.709229 707.704163,338.924896 
	C709.471924,338.964874 711.254150,338.359100 713.440613,338.053162 
	C714.770935,338.702332 715.685791,339.906281 716.610474,339.913879 
	C731.026489,340.031830 745.443909,340.015442 759.860474,339.936798 
	C760.620972,339.932648 761.376892,339.097748 762.759216,338.351837 
	C770.976440,338.362152 778.575317,338.954956 786.158264,338.794464 
	C788.269409,338.749817 790.943298,336.935333 792.299377,335.134705 
	C795.743591,330.561523 798.587952,325.536530 801.761658,320.775543 
	C801.850769,320.858643 802.030212,321.023468 802.030212,321.023468 
	C798.952942,327.057800 796.005005,333.165009 792.680908,339.060150 
	C792.072021,340.139893 789.934937,340.890656 788.500916,340.894379 
	C754.764465,340.981567 721.017944,341.416809 687.295410,340.718140 
	C672.079041,340.402893 657.150635,336.696869 642.879944,331.019501 
	C642.184692,330.742920 641.655029,330.049805 640.946533,329.186890 
z"/>
<path fill="#88876E" opacity="1.000000" stroke="none" 
	d="
M786.158386,266.924774 
	C786.395142,266.418182 786.631897,265.911591 786.983276,265.141663 
	C789.201965,266.648499 791.909363,268.038239 793.306396,270.254120 
	C799.622314,280.272003 805.671387,290.464355 811.536987,300.753235 
	C812.438049,302.333801 812.684875,305.198151 811.847778,306.691681 
	C809.120300,311.557953 805.750244,316.064117 802.328857,320.866150 
	C802.030212,321.023468 801.850769,320.858643 801.859497,320.439850 
	C803.950256,316.469635 805.855164,312.797760 808.164917,309.401184 
	C810.409729,306.100128 811.197754,303.164520 808.841980,299.443695 
	C803.541748,291.072052 798.747192,282.377625 793.360535,274.064850 
	C791.564392,271.293060 788.592712,269.283020 786.158386,266.924774 
z"/>
<path fill="#88876E" opacity="1.000000" stroke="none" 
	d="
M620.803955,373.116272 
	C618.180115,373.032104 615.473999,372.586090 612.404785,371.985779 
	C608.917114,369.657074 605.868835,367.361664 602.652405,365.332794 
	C595.231201,360.651672 587.691467,356.157928 580.292969,351.441986 
	C578.966125,350.596191 578.085938,349.049713 576.948853,347.492981 
	C578.257874,347.687866 579.721252,348.040802 580.961060,348.772400 
	C592.755188,355.732239 604.516968,362.747009 616.271729,369.773285 
	C617.802246,370.688141 619.240601,371.756958 620.803955,373.116272 
z"/>
<path fill="#88876E" opacity="1.000000" stroke="none" 
	d="
M638.334595,328.322418 
	C638.788635,328.168915 639.453003,328.284058 640.341187,328.665527 
	C639.891663,328.818268 639.218384,328.704651 638.334595,328.322418 
z"/>
<path fill="#FDFDFD" opacity="1.000000" stroke="none" 
	d="
M1104.656006,429.104004 
	C1104.772827,429.084778 1105.101562,429.197906 1105.575439,429.528503 
	C1105.401611,429.634247 1105.117432,429.464386 1104.656006,429.104004 
z"/>
<path fill="#88876E" opacity="1.000000" stroke="none" 
	d="
M636.362549,327.398987 
	C636.531433,327.193115 636.760986,327.260803 637.058716,327.592926 
	C636.896973,327.791687 636.662415,327.730072 636.362549,327.398987 
z"/>
<path fill="#FEFDFE" opacity="1.000000" stroke="none" 
	d="
M955.995239,1481.867065 
	C972.296631,1480.141724 981.840454,1486.315674 986.054016,1501.862793 
	C989.384521,1514.151733 989.066528,1526.576782 984.719421,1538.653198 
	C980.707092,1549.799438 971.455078,1556.186035 960.881470,1555.529907 
	C946.145325,1554.615601 939.068054,1549.539307 935.896912,1536.457520 
	C932.844299,1523.865234 932.741211,1511.073120 936.059692,1498.467163 
	C938.670105,1488.550903 945.392395,1483.092407 955.995239,1481.867065 
z"/>
<path fill="#FEFDFE" opacity="1.000000" stroke="none" 
	d="
M1083.091309,1552.282471 
	C1068.691772,1559.056763 1053.043335,1555.067627 1047.227661,1542.970825 
	C1045.255249,1538.868164 1043.838989,1534.102051 1043.704346,1529.593262 
	C1043.413208,1519.847046 1043.153687,1509.919922 1044.661255,1500.347168 
	C1046.435547,1489.081543 1054.141479,1482.937500 1064.641113,1481.887695 
	C1079.053955,1480.446411 1087.975586,1484.248291 1092.714478,1495.566284 
	C1099.229614,1511.126099 1099.179565,1527.071289 1091.745850,1542.416382 
	C1089.955444,1546.112427 1086.226685,1548.869507 1083.091309,1552.282471 
z"/>
<path fill="#FEFDFE" opacity="1.000000" stroke="none" 
	d="
M850.772400,1463.292114 
	C856.706665,1479.557495 862.526672,1495.446533 868.507385,1511.774414 
	C854.978455,1511.774414 841.807556,1511.774414 828.282593,1511.774414 
	C835.033691,1493.314209 841.731445,1474.999878 848.534790,1456.396729 
	C849.275391,1458.670532 849.966736,1460.793091 850.772400,1463.292114 
z"/>
<path fill="#FAFEF9" opacity="1.000000" stroke="none" 
	d="
M557.569336,1548.544678 
	C554.773987,1551.403320 552.468018,1554.355347 549.554382,1556.470215 
	C544.155762,1560.389038 539.122253,1558.302368 538.696594,1551.638794 
	C537.586060,1534.254639 543.237366,1518.968506 554.654358,1505.896362 
	C556.796082,1503.444092 559.683777,1501.596436 562.392395,1499.706299 
	C563.714355,1498.783813 565.369446,1498.225952 566.954529,1497.812622 
	C573.921997,1495.995972 579.456970,1501.381348 577.412903,1508.263184 
	C573.131042,1522.679199 567.045776,1536.262573 557.569336,1548.544678 
z"/>
<path fill="#FAFEF9" opacity="1.000000" stroke="none" 
	d="
M709.665405,1508.335327 
	C705.115234,1521.632935 691.078857,1532.081055 678.003235,1531.904175 
	C681.601074,1521.017822 685.629761,1510.580322 694.059143,1502.483276 
	C694.777466,1501.793091 695.453430,1500.767578 696.308716,1500.562012 
	C699.869019,1499.706299 703.892517,1497.881958 706.934509,1498.882080 
	C708.680725,1499.456055 708.871216,1504.762451 709.665405,1508.335327 
z"/>
<path fill="#C34896" opacity="1.000000" stroke="none" 
	d="
M1060.482666,519.858337 
	C1071.445435,522.547302 1082.082153,524.963989 1092.543335,527.987732 
	C1112.814697,533.847107 1131.791992,542.822632 1150.667236,552.815308 
	C1162.829834,561.170471 1174.969238,569.094482 1186.373535,577.963623 
	C1204.738281,592.246155 1220.308228,609.365540 1234.692017,627.951538 
	C1235.024170,628.030579 1234.971436,628.002197 1234.957764,628.245789 
	C1235.254761,628.904358 1235.565430,629.319336 1235.876099,629.734314 
	C1243.855225,643.324097 1252.389160,656.623840 1259.679565,670.573547 
	C1269.923462,690.173767 1276.997314,711.027832 1281.254517,732.785461 
	C1282.590576,739.613586 1284.010620,746.425293 1285.614380,753.523071 
	C1286.492920,764.396240 1287.197998,774.988159 1287.791748,785.586304 
	C1288.370605,795.917480 1284.978760,804.485718 1276.106201,810.886353 
	C1268.739258,813.867737 1261.503418,815.202942 1254.176392,811.949036 
	C1243.186646,807.068481 1239.734375,797.720947 1239.129883,786.568359 
	C1238.701660,778.670227 1237.869507,770.793945 1236.919922,762.528564 
	C1234.762085,751.100891 1233.779175,739.815918 1230.875977,729.048767 
	C1222.417603,697.678589 1207.369019,669.629761 1185.715942,644.504028 
	C1185.035767,643.426208 1184.860107,642.723511 1184.430664,642.251770 
	C1169.057251,625.363525 1152.187134,610.212463 1132.563477,598.376892 
	C1127.816040,595.513550 1122.626099,593.384033 1117.639648,590.916992 
	C1111.657593,587.749390 1105.878784,584.094971 1099.658447,581.498169 
	C1072.196777,570.033752 1043.541626,564.179260 1013.743591,563.951599 
	C1000.823242,563.852905 992.013550,557.617737 988.667114,546.569153 
	C984.153870,531.668213 994.877258,515.771973 1010.416565,516.107605 
	C1026.989380,516.465576 1043.525146,518.536987 1060.482666,519.858337 
z"/>
<path fill="#5CB648" opacity="1.000000" stroke="none" 
	d="
M1117.767822,591.283386 
	C1122.626099,593.384033 1127.816040,595.513550 1132.563477,598.376892 
	C1152.187134,610.212463 1169.057251,625.363525 1184.430664,642.251770 
	C1184.860107,642.723511 1185.035767,643.426208 1185.436768,644.248535 
	C1186.902100,659.356934 1188.705322,674.214661 1189.487183,689.125916 
	C1190.193237,702.590027 1182.670532,712.386047 1170.911011,715.118408 
	C1157.469238,718.241577 1144.078613,709.734192 1141.983154,696.115479 
	C1140.877197,688.926880 1141.148193,681.535278 1140.602539,674.249939 
	C1138.429565,645.240295 1130.486084,617.802917 1117.767822,591.283386 
z"/>
<path fill="#FDFDFC" opacity="1.000000" stroke="none" 
	d="
M1235.886963,629.432129 
	C1235.565430,629.319336 1235.254761,628.904358 1234.966064,628.216919 
	C1235.291260,628.339661 1235.594604,628.734802 1235.886963,629.432129 
z"/>
<path fill="#5CB549" opacity="1.000000" stroke="none" 
	d="
M785.918701,267.189575 
	C788.592712,269.283020 791.564392,271.293060 793.360535,274.064850 
	C798.747192,282.377625 803.541748,291.072052 808.841980,299.443695 
	C811.197754,303.164520 810.409729,306.100128 808.164917,309.401184 
	C805.855164,312.797760 803.950256,316.469635 801.770386,320.356750 
	C798.587952,325.536530 795.743591,330.561523 792.299377,335.134705 
	C790.943298,336.935333 788.269409,338.749817 786.158264,338.794464 
	C778.575317,338.954956 770.976440,338.362152 762.927002,338.003296 
	C765.011047,312.742676 773.201233,289.392792 785.918701,267.189575 
z"/>
</svg>